{"title":"Terminator.Salvation.2009.DVDRIP.H264-ZEKTORM","uid":5151913,"size":735214882,"categoryP":"video","categoryS":"movies","magnet":"?xt=urn:btih:bb427ce94da9b2aa83cda8b9630d9ee27bc35344&amp;dn=Terminator.Salvation.2009.DVDRIP.H264-ZEKTORM&amp;tr=udp%3A%2F%2Ftracker.openbittorrent.com%3A80&amp;tr=udp%3A%2F%2Fopen.demonii.com%3A1337&amp;tr=udp%3A%2F%2Ftracker.coppersurfer.tk%3A6969&amp;tr=udp%3A%2F%2Fexodus.desync.com%3A6969","seeders":0,"leechers":1,"uploader":"blowley","files":3,"time":1257611794,"description":"Title                            : Terminator Salvation\nYear                             : 2009\nGenre                            : Action | Adventure | Sci-Fi | Thriller\niMDB URL                         : http://www.imdb.com/title/tt0438488/\nAwards                           : 5 nominations\n\nComplete name                    : Terminator.Salvation.2009.DVDRIP.H264-ZEKTORM.mp4\nFormat                           : MPEG-4\nFormat profile                   : Base Media\nCodec ID                         : isom\nFile size                        : 701 MiB\nDuration                         : 1h 57mn\nOverall bit rate                 : 834 Kbps\nSubtitles                        : English (Format: srt)\n\nVideo\nFormat                           : AVC\nFormat/Info                      : Advanced Video Codec\nFormat profile                   : &lt;a class=&quot;__cf_email__&quot; href=&quot;/cdn-cgi/l/email-protection&quot; data-cfemail=&quot;440c2d232c0408706a75&quot;&gt;[email&amp;#160;protected]&lt;/a&gt;&lt;script cf-hash='f9e31' type=&quot;text/javascript&quot;&gt;\n/* &lt;![CDATA[ */!function(){try{var t=&quot;currentScript&quot;in document?document.currentScript:function(){for(var t=document.getElementsByTagName(&quot;script&quot;),e=t.length;e--;)if(t[e].getAttribute(&quot;cf-hash&quot;))return t[e]}();if(t&amp;&amp;t.previousSibling){var e,r,n,i,c=t.previousSibling,a=c.getAttribute(&quot;data-cfemail&quot;);if(a){for(e=&quot;&quot;,r=parseInt(a.substr(0,2),16),n=2;a.length-n;n+=2)i=parseInt(a.substr(n,2),16)^r,e+=String.fromCharCode(i);e=document.createTextNode(e),c.parentNode.replaceChild(e,c)}}}catch(u){}}();/* ]]&gt; */&lt;/script&gt;\nCodec ID                         : avc1\nCodec ID/Info                    : Advanced Video Coding\nDuration                         : 1h 57mn\nBit rate mode                    : Variable\nBit rate                         : 751 Kbps\nMaximum bit rate                 : 8426 Kbps\nWidth                            : 720 pixels\nHeight                           : 304 pixels\nDisplay aspect ratio             : 2.425\nFrame rate mode                  : Constant\nFrame rate                       : 23.976 fps\nResolution                       : 24 bits\nColorimetry                      : 4:2:0\nScan type                        : Progressive\nBits/(Pixel*Frame)               : 0.143\nStream size                      : 631 MiB (90%)\nTitle                            : Video\nWriting library                  : x264\n\nAudio\nFormat                           : AAC\nFormat/Info                      : Advanced Audio Codec\nFormat version                   : Version 4\nFormat profile                   : LC\nFormat settings, SBR             : Yes\nFormat settings, PS              : No\nCodec ID                         : 40\nDuration                         : 1h 57mn\nBit rate mode                    : Variable\nBit rate                         : 80.2 Kbps\nMaximum bit rate                 : 110 Kbps\nChannel(s)                       : 2 channels\nChannel positions                : L R\nSampling rate                    : 48.0 KHz\nResolution                       : 16 bits\nStream size                      : 67.4 MiB (10%)\nTitle                            : English\nLanguage                         : English\n","torrent":{"xt":"urn:btih:bb427ce94da9b2aa83cda8b9630d9ee27bc35344","amp;dn":"Terminator.Salvation.2009.DVDRIP.H264-ZEKTORM","amp;tr":["udp%3A%2F%2Ftracker.openbittorrent.com%3A80","udp%3A%2F%2Fopen.demonii.com%3A1337","udp%3A%2F%2Ftracker.coppersurfer.tk%3A6969","udp%3A%2F%2Fexodus.desync.com%3A6969"],"infoHash":"bb427ce94da9b2aa83cda8b9630d9ee27bc35344","infoHashBuffer":{"type":"Buffer","data":[187,66,124,233,77,169,178,170,131,205,168,185,99,13,158,226,123,195,83,68]},"announce":[],"urlList":[]}}